<?xml version="1.0" encoding="UTF-8"?>
<svg version="1.1" xmlns="http://www.w3.org/2000/svg" width="280" height="280">
<path d="M0 0 C92.4 0 184.8 0 280 0 C280 92.4 280 184.8 280 280 C187.6 280 95.2 280 0 280 C0 187.6 0 95.2 0 0 Z " fill="#8163EB" transform="translate(0,0)"/>
<path d="M0 0 C19.0390676 -3.85097639 45.55578864 -8.77313537 63.16693115 2.47802734 C73.43662925 9.70152472 82.19753775 18.81239461 90.6875 28 C91.30663269 28.66963776 91.92576538 29.33927551 92.56365967 30.02920532 C100.31509376 38.46135271 107.77365527 47.11427902 115 56 C109.859555 67.63004723 98.13232201 78.00699308 89.5625 87.25 C88.97441307 87.88581245 88.38632614 88.52162491 87.7804184 89.17670441 C73.25138177 104.74790639 60.2465365 116.93397074 38.17048645 117.76940918 C25.38452116 117.96611036 12.53459706 116.42725442 0 114 C5.37193906 107.47121267 11.31785074 101.55420138 17.3046875 95.59765625 C18.39492365 94.50928861 19.48493669 93.42069743 20.57473755 92.33189392 C23.42311794 89.48730465 26.27449004 86.64573319 29.12652588 83.80480957 C32.04452 80.89710335 34.95963304 77.98651176 37.875 75.07617188 C43.58053984 69.38130919 49.28924794 63.68963588 55 58 C53.40477135 54.09569235 50.87979933 51.64496584 47.90771484 48.6965332 C47.39048355 48.18061615 46.87325226 47.6646991 46.34034729 47.13314819 C44.63509993 45.43437571 42.92299359 43.74268908 41.2109375 42.05078125 C40.02501562 40.87113045 38.83960788 39.69096258 37.6546936 38.51029968 C34.53864635 35.40754267 31.41707607 32.31040727 28.29388428 29.21484375 C23.28628569 24.25041 18.28545472 19.27918065 13.28776932 14.30476952 C11.53732585 12.56458818 9.78353158 10.82783581 8.02938843 9.09138489 C6.96397803 8.032798 5.89867461 6.97410342 4.83349609 5.9152832 C3.8979892 4.98802933 2.9624823 4.06077545 1.99862671 3.10542297 C0 1 0 1 0 0 Z " fill="#FEFEFE" transform="translate(127,83)"/>
<path d="M0 0 C19.0390676 -3.85097639 45.55578864 -8.77313537 63.16693115 2.47802734 C73.43662925 9.70152472 82.19753775 18.81239461 90.6875 28 C91.30663269 28.66963776 91.92576538 29.33927551 92.56365967 30.02920532 C100.31509376 38.46135271 107.77365527 47.11427902 115 56 C109.859555 67.63004723 98.13232201 78.00699308 89.5625 87.25 C88.97441307 87.88581245 88.38632614 88.52162491 87.7804184 89.17670441 C73.25138177 104.74790639 60.2465365 116.93397074 38.17048645 117.76940918 C25.38452116 117.96611036 12.53459706 116.42725442 0 114 C5.37193906 107.47121267 11.31785074 101.55420138 17.3046875 95.59765625 C18.39492365 94.50928861 19.48493669 93.42069743 20.57473755 92.33189392 C23.42311794 89.48730465 26.27449004 86.64573319 29.12652588 83.80480957 C32.04452 80.89710335 34.95963304 77.98651176 37.875 75.07617188 C43.58053984 69.38130919 49.28924794 63.68963588 55 58 C53.40477135 54.09569235 50.87979933 51.64496584 47.90771484 48.6965332 C47.39048355 48.18061615 46.87325226 47.6646991 46.34034729 47.13314819 C44.63509993 45.43437571 42.92299359 43.74268908 41.2109375 42.05078125 C40.02501562 40.87113045 38.83960788 39.69096258 37.6546936 38.51029968 C34.53864635 35.40754267 31.41707607 32.31040727 28.29388428 29.21484375 C23.28628569 24.25041 18.28545472 19.27918065 13.28776932 14.30476952 C11.53732585 12.56458818 9.78353158 10.82783581 8.02938843 9.09138489 C6.96397803 8.032798 5.89867461 6.97410342 4.83349609 5.9152832 C3.8979892 4.98802933 2.9624823 4.06077545 1.99862671 3.10542297 C0 1 0 1 0 0 Z " fill="#FEFEFE" transform="translate(38,83)"/>
</svg>
